<svg width="231" height="55" viewBox="0 0 231 55" fill="none" xmlns="http://www.w3.org/2000/svg">
<path d="M46.75 50C46.75 52.1445 44.9629 53.8125 42.9375 53.8125H4.8125C3.26367 53.8125 1.95312 52.9785 1.35742 51.668C0.642578 50.3574 0.880859 48.8086 1.83398 47.6172L34.7168 8.18164H4.8125C2.66797 8.18164 1 6.39453 1 4.36914C1 2.22461 2.66797 0.556641 4.8125 0.556641H42.9375C44.3672 0.556641 45.6777 1.39062 46.2734 2.70117C46.9883 4.01172 46.75 5.56055 45.7969 6.75195L12.9141 46.1875H42.9375C44.9629 46.1875 46.75 47.9746 46.75 50ZM73.4375 0.556641C58.6641 0.556641 46.75 12.4707 46.75 27.2441C46.75 41.8984 58.6641 53.9316 73.4375 53.9316C88.0918 53.9316 100.125 41.8984 100.125 27.2441C100.125 12.4707 88.0918 0.556641 73.4375 0.556641ZM73.4375 46.1875C62.834 46.1875 54.375 37.7285 54.375 27.125C54.375 16.6406 62.834 8.18164 73.4375 8.18164C83.9219 8.18164 92.5 16.7598 92.5 27.125C92.5 37.6094 83.9219 46.1875 73.4375 46.1875ZM127.289 33.5586C133.723 31.0566 138.25 24.8613 138.25 17.5938C138.25 8.18164 130.506 0.4375 121.094 0.4375H103.938C101.793 0.4375 100.125 2.22461 100.125 4.25V50C100.125 52.1445 101.793 53.8125 103.938 53.8125C105.963 53.8125 107.75 52.1445 107.75 50V34.75H118.83L131.221 52.2637C132.055 53.3359 133.246 53.9316 134.438 53.9316C135.152 53.9316 135.867 53.6934 136.582 53.2168C138.25 51.9062 138.727 49.5234 137.535 47.8555L127.289 33.5586ZM107.75 8.18164H121.094C126.336 8.18164 130.625 12.3516 130.625 17.7129C130.625 22.9551 126.336 27.125 121.094 27.125H107.75V8.18164ZM180.188 39.5156C182.809 39.5156 183.881 41.8984 183.881 43.3281C183.881 46.0684 175.898 53.9316 164.223 53.9316C147.9 53.9316 138.131 39.873 138.131 27.2441C138.131 14.8535 147.662 0.556641 164.223 0.556641C176.137 0.556641 183.881 8.53906 183.881 11.1602C183.881 12.5898 182.689 14.9727 180.068 14.9727C176.256 14.9727 174.588 8.18164 164.223 8.18164C152.547 8.18164 145.756 18.3086 145.756 27.2441C145.756 36.0605 152.428 46.3066 164.223 46.3066C174.707 46.1875 176.375 39.5156 180.188 39.5156ZM229.393 48.5703L210.33 2.82031C209.734 1.39062 208.305 0.556641 206.875 0.556641C205.326 0.556641 203.896 1.39062 203.301 2.82031L184.238 48.5703C183.404 50.5957 184.357 52.7402 186.264 53.5742C188.289 54.4082 190.434 53.4551 191.268 51.5488L195.08 42.4941H218.551L222.363 51.5488C222.959 52.9785 224.389 53.9316 225.938 53.9316C226.414 53.9316 226.891 53.8125 227.367 53.5742C229.273 52.7402 230.227 50.4766 229.393 48.5703ZM198.178 34.75L206.875 14.2578L215.453 34.75H198.178Z" fill="#ECCB37"/>
</svg>
